<?xml version="1.0" standalone="no"?>
<!DOCTYPE svg PUBLIC "-//W3C//DTD SVG 20010904//EN"
 "http://www.w3.org/TR/2001/REC-SVG-20010904/DTD/svg10.dtd">
<svg version="1.0" xmlns="http://www.w3.org/2000/svg"
 width="512.000000pt" height="512.000000pt" viewBox="0 0 512.000000 512.000000"
 preserveAspectRatio="xMidYMid meet">
<metadata>
Created by potrace 1.14, written by Peter Selinger 2001-2017
</metadata>
<g transform="translate(0.000000,512.000000) scale(0.100000,-0.100000)"
fill="#000000" stroke="none">
<path d="M2426 4723 c-1 -1 -33 -5 -72 -8 -38 -3 -82 -7 -99 -10 -16 -2 -46
-7 -65 -10 -94 -13 -244 -49 -345 -81 -188 -61 -431 -171 -587 -267 -12 -8
-26 -5 -55 15 -59 39 -169 92 -250 121 -106 38 -173 55 -303 73 -71 10 -195
12 -212 3 -41 -22 -166 -246 -209 -372 -60 -181 -78 -298 -74 -487 2 -69 5
-136 8 -150 3 -14 8 -43 12 -65 8 -53 34 -153 50 -192 13 -30 11 -38 -41 -152
-30 -66 -54 -126 -54 -133 0 -8 -4 -18 -9 -23 -23 -24 -90 -297 -110 -445 -11
-87 -7 -338 8 -425 89 -525 441 -993 986 -1314 93 -54 311 -162 355 -176 14
-4 39 -13 55 -20 78 -34 160 -61 340 -110 74 -20 291 -62 365 -71 30 -3 58 -8
61 -10 13 -7 245 -19 379 -19 134 0 328 10 375 19 11 2 45 7 75 11 90 12 328
62 425 90 50 14 97 27 105 29 64 16 364 140 453 187 39 20 62 34 67 39 3 3 25
16 50 29 43 23 109 66 215 139 28 19 86 65 130 103 110 92 206 191 319 329 94
115 217 349 270 515 56 176 71 279 70 495 -1 182 -18 294 -76 490 -30 102 -94
264 -135 344 -20 39 -20 39 -1 100 23 73 24 75 47 198 18 98 22 320 6 418 -34
218 -132 457 -247 602 l-29 37 -87 -4 c-99 -4 -154 -11 -229 -26 -29 -6 -55
-10 -58 -10 -3 0 -51 -16 -107 -35 -94 -33 -204 -84 -288 -134 l-35 -21 -96
54 c-244 138 -553 253 -784 291 -99 16 -168 26 -230 32 -69 7 -334 12 -339 7z"/>
</g>
</svg>
